<svg width="213" height="230" viewBox="0 0 213 230" fill="none" xmlns="http://www.w3.org/2000/svg">
<path d="M99.4385 2.32809e-05C105.993 -0.0260662 136.432 21.8833 144.501 25.9968C144.586 21.6404 144.448 17.5733 144.732 13.1745C148.641 12.0466 150.486 11.9971 154.383 11.8558C170.721 11.2642 169.225 11.1561 169.2 24.7904C169.19 29.8203 169.184 36.7645 169.166 42.0627C176.74 46.9541 185.571 52.4038 191.251 58.8185C201.874 70.8134 205.724 87.8895 203.424 102.636C199.465 127.986 186.772 140.499 164.405 155.387C169.621 160.337 176.559 170.16 181.321 175.905L199.962 198.513C204.015 203.38 208.285 208.139 211.808 213.329C213.805 216.27 213.336 220.511 210.079 222.737C206.176 225.405 203.378 225.21 198.754 224.848C195 221.717 185.698 210.355 182.37 206.216C172.125 193.474 161.981 181.004 151.438 168.417L146.801 162.723C124.202 170.239 99.2906 173.651 76.0389 166.384C75.6919 177.558 76.579 188.682 75.4258 199.843C73.6102 217.394 58.435 229.429 38.0113 229.984C17.9478 230.528 2.70216 216.807 1.10815 200.137C0.270142 191.375 0.579435 182.229 0.573916 173.411L0.463326 130.97L0.276244 94.9325C0.18852 86.803 -0.677275 70.004 1.19095 62.5905C2.31105 58.1451 25.574 45.2015 31.0168 41.9422C39.4342 36.8162 47.8066 31.6354 56.1329 26.4005L82.1618 10.4234C86.9935 7.40486 94.5082 2.27082 99.4385 2.32809e-05Z" fill="#FEFEFE"/>
<path d="M100.267 19.0781C107.819 23.1533 121.516 32.4322 129.224 37.2872C138.992 43.3141 148.639 49.4842 158.161 55.7953C167.121 61.7603 175.124 66.2955 179.985 75.4146C184.868 85.0169 186.376 96.7966 183.043 106.921C178.126 121.815 168.499 133.322 152.963 141.433C151.656 140.253 150.26 138.84 149.038 137.577C133.139 121.163 111.425 104.376 84.5833 110.139C77.936 111.566 72.7869 113.577 67.8625 117.855C63.1806 121.985 59.8629 127.113 58.2543 132.71C56.1915 139.792 56.6642 151.481 56.678 159.15L56.9495 194.054C56.9505 204.478 50.4747 214.306 37.3827 213.574C17.6561 212.473 19.5843 196.519 19.5744 185.404L19.5348 158.413C19.5052 129.49 19.0201 98.1587 19.999 69.3217C36.3935 57.6807 56.0214 47.4218 72.9584 36.1344C81.4804 30.4541 91.3134 24.2079 100.267 19.0781Z" fill="#3C0B9C"/>
<path d="M179.985 75.4141C184.868 85.0163 186.376 96.7961 183.042 106.92C181.97 104.086 184.99 93.6806 183.501 89.3863L183.103 89.4698L182.504 90.5648C182.086 89.4929 179.805 76.0831 179.985 75.4141Z" fill="#380C8A"/>
<path d="M91.7324 124.651C111.172 123.987 122.986 137.61 134.835 148.471C128.265 151.115 124.76 151.479 117.693 152.575C107.84 154.031 92.1877 155.642 83.506 150.87C68.5457 142.648 76.4014 127.66 91.7324 124.651Z" fill="#3C0B9C"/>
</svg>
